<?xml version="1.0" encoding="UTF-8" standalone="no"?>
<!-- Created with Inkscape (http://www.inkscape.org/) -->

<svg
   xmlns:dc="http://purl.org/dc/elements/1.1/"
   xmlns:cc="http://creativecommons.org/ns#"
   xmlns:rdf="http://www.w3.org/1999/02/22-rdf-syntax-ns#"
   xmlns:svg="http://www.w3.org/2000/svg"
   xmlns="http://www.w3.org/2000/svg"
   xmlns:inkscape="http://www.inkscape.org/namespaces/inkscape"
   version="1.1"
   width="1052.3625"
   height="744.09998"
   id="svg2"
   xml:space="preserve"><metadata
     id="metadata8"><rdf:RDF><cc:Work
         rdf:about=""><dc:format>image/svg+xml</dc:format><dc:type
           rdf:resource="http://purl.org/dc/dcmitype/StillImage" /></cc:Work></rdf:RDF></metadata><defs
     id="defs6"><clipPath
       id="clipPath16"><path
         d="m 0,595.28 841.89,0 L 841.89,0 0,0 0,595.28 z"
         inkscape:connector-curvature="0"
         id="path18" /></clipPath></defs><g
     transform="matrix(1.25,0,0,-1.25,0,744.1)"
     id="g10"><g
       id="g12"><g
         clip-path="url(#clipPath16)"
         id="g14"><g
           transform="translate(478.3525,406.5796)"
           id="g20"><path
             d="m 0,0 -140.808,0 0,-0.161 c -18.596,0 -17.818,-14.553 -17.818,-14.553 l -0.172,0 0,-90.66 c 0.127,0.01 0.256,0.023 0.377,0.034 16.492,1.941 32.339,-3.558 47.213,-10.35 20.05,-9.055 37.835,-20.693 60.149,-24.576 21.465,-3.721 47.487,-5.154 68.877,2.41 l 0,123.815 C 17.748,-11.476 16.521,0 0,0"
             inkscape:connector-curvature="0"
             id="path22"
             style="fill:#231f20;fill-opacity:1;fill-rule:nonzero;stroke:none" /></g><g
           transform="translate(343.6831,361.7817)"
           id="g24"><path
             d="M 0,0 3.51,0 C 5.383,0 6.676,1.124 6.676,3.031 6.676,4.973 5.383,6.03 3.51,6.03 L 0,6.03 0,0 z m -5.11,8.074 c 0,1.635 0.919,2.656 2.623,2.656 l 5.997,0 c 5.244,0 8.48,-2.349 8.48,-7.699 0,-3.747 -2.826,-5.893 -6.301,-6.438 l 5.79,-6.2 c 0.478,-0.512 0.683,-1.023 0.683,-1.5 0,-1.328 -1.057,-2.622 -2.555,-2.622 -0.613,0 -1.431,0.238 -1.976,0.885 L 0.068,-3.68 0,-3.68 0,-11.072 c 0,-1.704 -1.091,-2.657 -2.555,-2.657 -1.465,0 -2.555,0.953 -2.555,2.657 l 0,19.146 z"
             inkscape:connector-curvature="0"
             id="path26"
             style="fill:#ffffff;fill-opacity:1;fill-rule:nonzero;stroke:none" /></g><g
           transform="translate(369.0308,358.9541)"
           id="g28"><path
             d="M 0,0 C -0.273,2.146 -1.637,3.748 -3.92,3.748 -6.1,3.748 -7.564,2.078 -7.803,0 L 0,0 z m -7.699,-3.271 c 0.339,-2.419 2.349,-3.543 4.633,-3.543 2.52,0 4.257,1.977 5.552,1.977 1.055,0 2.01,-1.057 2.01,-2.113 0,-2.113 -4.36,-4.157 -8.006,-4.157 -5.519,0 -9.197,4.021 -9.197,9.438 0,4.974 3.609,9.504 8.787,9.504 5.316,0 8.824,-4.838 8.824,-8.925 0,-1.465 -0.646,-2.181 -2.145,-2.181 l -10.458,0 z"
             inkscape:connector-curvature="0"
             id="path30"
             style="fill:#ffffff;fill-opacity:1;fill-rule:nonzero;stroke:none" /></g><g
           transform="translate(387.8687,361.3379)"
           id="g32"><path
             d="m 0,0 c -1.227,0 -2.316,0.955 -3.883,0.955 -2.794,0 -4.123,-2.488 -4.123,-5.008 0,-2.419 1.465,-4.942 4.123,-4.942 1.225,0 3.065,1.023 3.645,1.023 1.158,0 2.111,-0.986 2.111,-2.146 0,-2.52 -4.225,-3.373 -5.994,-3.373 -5.281,0 -8.791,4.327 -8.791,9.438 0,4.974 3.611,9.504 8.791,9.504 1.941,0 5.994,-0.715 5.994,-3.1 C 1.873,1.329 1.158,0 0,0"
             inkscape:connector-curvature="0"
             id="path34"
             style="fill:#ffffff;fill-opacity:1;fill-rule:nonzero;stroke:none" /></g><g
           transform="translate(389.3735,371.479)"
           id="g36"><path
             d="M 0,0 C -0.95,1.333 -0.751,2.814 0.413,3.646 1.577,4.477 3.044,4.182 3.993,2.85 L 16.8,-20.167 c 0.951,-1.331 0.752,-2.812 -0.412,-3.642 -1.165,-0.832 -2.633,-0.538 -3.581,0.793 L 0,0 z"
             inkscape:connector-curvature="0"
             id="path38"
             style="fill:#ffffff;fill-opacity:1;fill-rule:nonzero;stroke:none" /></g><g
           transform="translate(410.4072,363.6782)"
           id="g40"><path
             d="M 0,0 C 0,1.636 1.023,2.727 2.455,2.727 3.887,2.727 4.906,1.636 4.906,0 l 0,-13.082 c 0,-1.635 -1.019,-2.725 -2.451,-2.725 -1.432,0 -2.455,1.09 -2.455,2.725 L 0,0 z m 5.215,7.393 c 0,-1.533 -1.227,-2.828 -2.76,-2.828 -1.465,0 -2.76,1.329 -2.76,2.828 0,1.397 1.295,2.691 2.76,2.691 1.465,0 2.76,-1.26 2.76,-2.691"
             inkscape:connector-curvature="0"
             id="path42"
             style="fill:#ffffff;fill-opacity:1;fill-rule:nonzero;stroke:none" /></g><g
           transform="translate(418.04,363.6782)"
           id="g44"><path
             d="m 0,0 c 0,1.636 1.02,2.727 2.453,2.727 1.26,0 2.078,-0.684 2.246,-1.808 0.955,1.329 2.422,2.011 4.739,2.011 3.847,0 6.708,-2.453 6.708,-6.609 l 0,-9.403 c 0,-1.635 -1.021,-2.725 -2.451,-2.725 -1.431,0 -2.453,1.09 -2.453,2.725 l 0,8.551 c 0,2.283 -1.429,3.373 -3.203,3.373 -2.008,0 -3.133,-1.466 -3.133,-3.373 l 0,-8.551 c 0,-1.635 -1.023,-2.725 -2.453,-2.725 -1.433,0 -2.453,1.09 -2.453,2.725 L 0,0 z"
             inkscape:connector-curvature="0"
             id="path46"
             style="fill:#ffffff;fill-opacity:1;fill-rule:nonzero;stroke:none" /></g><g
           transform="translate(448.6338,358.7734)"
           id="g48"><path
             d="M 0,0 C -0.273,2.146 -1.635,3.747 -3.918,3.747 -6.1,3.747 -7.564,2.076 -7.803,0 L 0,0 z m -7.699,-3.271 c 0.34,-2.419 2.349,-3.543 4.633,-3.543 2.519,0 4.257,1.976 5.552,1.976 1.057,0 2.01,-1.057 2.01,-2.112 0,-2.113 -4.361,-4.157 -8.006,-4.157 -5.519,0 -9.197,4.021 -9.197,9.437 0,4.974 3.609,9.505 8.789,9.505 5.313,0 8.822,-4.838 8.822,-8.926 0,-1.464 -0.646,-2.18 -2.146,-2.18 l -10.457,0 z"
             inkscape:connector-curvature="0"
             id="path50"
             style="fill:#ffffff;fill-opacity:1;fill-rule:nonzero;stroke:none" /></g><g
           transform="translate(455.208,363.9507)"
           id="g52"><path
             d="m 0,0 c 0,1.636 1.295,2.454 2.52,2.454 1.294,0 2.384,-0.478 2.384,-2.045 l 0.071,0 c 0.918,1.362 1.906,2.045 3.439,2.045 1.193,0 2.385,-0.852 2.385,-2.624 0,-1.601 -1.465,-1.703 -2.928,-2.385 C 6.402,-3.237 4.904,-3.883 4.904,-5.826 l 0,-7.528 c 0,-1.635 -1.021,-2.725 -2.451,-2.725 -1.433,0 -2.453,1.09 -2.453,2.725 L 0,0 z"
             inkscape:connector-curvature="0"
             id="path54"
             style="fill:#ffffff;fill-opacity:1;fill-rule:nonzero;stroke:none" /></g><g
           transform="translate(476.9424,360.8838)"
           id="g56"><path
             d="m 0,0 c -0.92,0 -2.795,1.432 -4.395,1.432 -0.884,0 -1.669,-0.41 -1.669,-1.362 0,-2.283 8.515,-1.943 8.515,-7.53 0,-3.27 -2.758,-5.758 -6.982,-5.758 -2.76,0 -6.848,1.567 -6.848,3.782 0,0.749 0.75,2.18 2.111,2.18 1.909,0 2.76,-1.669 5.077,-1.669 1.5,0 1.941,0.477 1.941,1.398 0,2.247 -8.516,1.907 -8.516,7.527 0,3.408 2.76,5.724 6.643,5.724 C -1.703,5.724 2.01,4.6 2.01,2.181 2.01,1.057 1.158,0 0,0"
             inkscape:connector-curvature="0"
             id="path58"
             style="fill:#ffffff;fill-opacity:1;fill-rule:nonzero;stroke:none" /></g><g
           transform="translate(485.8975,371.1665)"
           id="g60"><path
             d="m 0,0 c 0.402,0 0.689,0.207 0.689,0.551 l 0,0.008 c 0,0.33 -0.252,0.528 -0.685,0.528 l -0.826,0 L -0.822,0 0,0 z m -1.125,1.367 1.152,0 C 0.355,1.367 0.621,1.268 0.789,1.099 0.92,0.969 0.996,0.781 0.996,0.571 l 0,-0.008 c 0,-0.444 -0.307,-0.705 -0.726,-0.781 l 0.822,-1.095 -0.371,0 -0.778,1.041 -0.007,0 -0.758,0 0,-1.041 -0.303,0 0,2.68 z"
             inkscape:connector-curvature="0"
             id="path62"
             style="fill:#ffffff;fill-opacity:1;fill-rule:nonzero;stroke:none" /></g><g
           transform="translate(485.7803,373.4043)"
           id="g64"><path
             d="m 0,0 c -1.215,0 -2.203,-0.989 -2.203,-2.203 0,-1.214 0.988,-2.202 2.203,-2.202 1.213,0 2.203,0.988 2.203,2.202 C 2.203,-0.989 1.213,0 0,0 m 0,-4.754 c -1.406,0 -2.553,1.144 -2.553,2.551 0,1.407 1.147,2.552 2.553,2.552 1.406,0 2.551,-1.145 2.551,-2.552 C 2.551,-3.61 1.406,-4.754 0,-4.754"
             inkscape:connector-curvature="0"
             id="path66"
             style="fill:#ffffff;fill-opacity:1;fill-rule:nonzero;stroke:none" /></g></g></g><text
       transform="matrix(1,0,0,-1,361.4312,327.7705)"
       id="text68"><tspan
         x="0 8.6447887 16.259239 27.706045 31.689182 39.303635 43.889893 48.463593 51.730518 54.532536 61.770031 65.036957 72.51445 77.088142 84.011513 86.81353"
         y="0"
         id="tspan70"
         style="font-size:12.56509972px;font-variant:normal;font-weight:normal;font-stretch:normal;writing-mode:lr-tb;fill:#ffffff;fill-opacity:1;fill-rule:nonzero;stroke:none;font-family:Gotham;-inkscape-font-specification:Gotham-Book">Comfort in Style</tspan></text>
<text
       transform="matrix(1,0,0,-1,44.5542,530.7422)"
       id="text72"><tspan
         x="0 4.5 8.4960003 12.996"
         y="0"
         id="tspan74"
         style="font-size:9px;font-variant:normal;font-weight:normal;font-stretch:normal;writing-mode:lr-tb;fill:#231f20;fill-opacity:1;fill-rule:nonzero;stroke:none;font-family:Garamond 3;-inkscape-font-specification:GaramondThree">Logo</tspan></text>
</g></svg>